<svg width="568" height="100" viewBox="0 0 568 100" fill="none" xmlns="http://www.w3.org/2000/svg">
<path d="M41.5 8.5C64.4198 8.5 83 27.0802 83 50C83 72.9198 64.4198 91.5 41.5 91.5C18.5802 91.5 0 72.9198 0 50C0 27.0802 18.5802 8.5 41.5 8.5ZM303.617 36.7002H316.45V43.584H303.617V64.6592C303.617 66.982 304.099 68.5408 305.062 69.334C306.026 70.1269 307.244 70.5234 308.717 70.5234C310.36 70.5233 311.776 69.9562 312.966 68.8232C314.155 67.6904 315.033 66.5293 315.6 65.3398L318.489 73.498C317.583 74.8577 316.138 76.1043 314.155 77.2373C312.172 78.3704 309.679 78.9365 306.677 78.9365C304.184 78.9365 302.031 78.4553 300.218 77.4922C298.462 76.4724 297.102 75.056 296.139 73.2432C295.176 71.4302 294.694 69.3336 294.694 66.9541V43.584H288.15V36.7002H294.694V31.6016L303.617 25.7373V36.7002ZM168.227 35.8506C172.136 35.8506 175.592 36.7574 178.595 38.5703C181.597 40.3266 183.949 42.8187 185.648 46.0479C187.348 49.2771 188.198 53.045 188.198 57.3506C188.198 61.6562 187.348 65.4241 185.648 68.6533C183.949 71.8826 181.597 74.4038 178.595 76.2168C175.592 77.9731 172.136 78.8516 168.227 78.8516C164.318 78.8515 160.862 77.973 157.859 76.2168C154.857 74.4038 152.505 71.8827 150.806 68.6533C149.163 65.424 148.341 61.6563 148.341 57.3506C148.341 53.045 149.163 49.2771 150.806 46.0479C152.505 42.8187 154.857 40.3265 157.859 38.5703C160.862 36.7574 164.318 35.8506 168.227 35.8506ZM266.653 35.9355C271.072 35.9356 274.783 36.8706 277.786 38.7402C280.789 40.6098 282.885 42.7622 284.075 45.1982L278.466 50.5527C277.163 48.2866 275.463 46.5013 273.367 45.1982C271.271 43.8386 268.835 43.1592 266.059 43.1592C264.132 43.1592 262.574 43.5556 261.385 44.3486C260.195 45.0851 259.6 46.2184 259.6 47.748C259.6 49.3343 260.223 50.5242 261.47 51.3174C262.773 52.0538 264.812 52.7899 267.588 53.5264L272.688 54.8018C277.333 55.9348 280.59 57.4927 282.46 59.4756C284.33 61.4019 285.265 63.8381 285.265 66.7842C285.265 69.4469 284.556 71.6851 283.14 73.498C281.723 75.3108 279.854 76.6707 277.531 77.5771C275.265 78.427 272.687 78.8515 269.798 78.8516C266.909 78.8516 264.132 78.4552 261.47 77.6621C258.807 76.8123 256.484 75.6224 254.501 74.0928C252.518 72.5064 251.017 70.5797 249.997 68.3135L255.521 62.96C256.257 64.3197 257.277 65.6794 258.58 67.0391C259.883 68.3987 261.469 69.5037 263.339 70.3535C265.265 71.2033 267.503 71.6279 270.053 71.6279C272.262 71.6279 274.018 71.2315 275.321 70.4385C276.624 69.5887 277.276 68.3988 277.276 66.8691C277.276 65.2261 276.511 64.0646 274.981 63.3848C273.452 62.6483 271.526 61.9962 269.203 61.4297L263.764 60.1553C261.724 59.6454 259.741 58.9376 257.815 58.0312C255.889 57.1248 254.302 55.9066 253.056 54.377C251.866 52.7906 251.271 50.7506 251.271 48.2578C251.271 44.4054 252.66 41.4029 255.436 39.25C258.268 37.0405 262.008 35.9355 266.653 35.9355ZM117.923 70.0986H147.327V78.002H109V21.0635H117.923V70.0986ZM218.631 35.8506C221.067 35.8506 223.135 36.6432 224.835 38.2295C226.591 39.8158 227.469 42.139 227.469 45.1982C227.469 47.0679 227.271 48.7116 226.874 50.1279C226.478 51.4872 226.081 52.4217 225.685 52.9316H216.421C217.101 52.3085 217.696 51.4025 218.206 50.2129C218.716 49.0233 218.971 47.8332 218.971 46.6436C218.971 45.5105 218.659 44.547 218.036 43.7539C217.47 42.9041 216.45 42.4795 214.977 42.4795C213.39 42.4795 211.861 43.0457 210.388 44.1787C208.971 45.3118 207.81 46.8414 206.903 48.7676C206.053 50.6372 205.629 52.7338 205.629 55.0566V78.002H196.705V36.7002H205.629V48.0293C205.821 47.2458 206.046 46.4714 206.309 45.708C206.988 43.8386 207.866 42.1672 208.942 40.6943C210.075 39.2213 211.436 38.0598 213.022 37.21C214.665 36.3036 216.535 35.8506 218.631 35.8506ZM242.726 78.002H233.802V36.7002H242.726V78.002ZM16.8984 66.2344V67.6201L26.9648 74.4775H28.3516L32.9473 67.6934H37.3242L47.3174 74.4775H48.7031L62.709 53.6875V52.3018L52.6426 45.4443H51.2568L37.3965 66.0156V61.0557L59.5723 28.1562V26.7695L49.5059 19.9131H48.1201L16.8984 66.2344ZM168.227 43.2441C166.131 43.2442 164.261 43.7538 162.618 44.7734C161.032 45.7365 159.757 47.2662 158.794 49.3623C157.888 51.4018 157.435 54.0648 157.435 57.3506C157.435 60.5799 157.887 63.2436 158.794 65.3398C159.757 67.4359 161.032 68.994 162.618 70.0137C164.261 70.9767 166.131 71.458 168.227 71.458C170.379 71.458 172.278 70.9768 173.921 70.0137C175.564 68.9939 176.839 67.4359 177.745 65.3398C178.708 63.2436 179.189 60.5799 179.189 57.3506C179.189 54.0648 178.708 51.4018 177.745 49.3623C176.839 47.2662 175.564 45.7365 173.921 44.7734C172.278 43.7536 170.379 43.2441 168.227 43.2441ZM242.726 30.5811H233.802V21.0635H242.726V30.5811Z" fill="white"/>
<rect x="352.489" y="17.1198" width="2.69373" height="65.7604" fill="white"/>
<path d="M396.213 24.348H410.643C416.958 24.348 421.669 26.5433 424.777 30.934C427.885 35.2753 429.439 41.6887 429.439 50.174C429.439 58.6593 427.885 65.0973 424.777 69.488C421.669 73.8293 416.958 76 410.643 76H396.213V24.348ZM410.347 70.598C414.442 70.598 417.55 69.1673 419.671 66.306C421.792 63.3953 422.853 59.35 422.853 54.17V46.178C422.853 40.998 421.792 36.9773 419.671 34.116C417.55 31.2053 414.442 29.75 410.347 29.75H402.429V70.598H410.347ZM455.754 76.888C452.202 76.888 449.119 76.074 446.504 74.446C443.939 72.7687 441.941 70.45 440.51 67.49C439.129 64.4807 438.438 60.9533 438.438 56.908C438.438 52.8627 439.129 49.36 440.51 46.4C441.941 43.3907 443.939 41.072 446.504 39.444C449.119 37.7667 452.202 36.928 455.754 36.928C459.355 36.928 462.439 37.7667 465.004 39.444C467.569 41.072 469.543 43.3907 470.924 46.4C472.355 49.36 473.07 52.8627 473.07 56.908C473.07 60.9533 472.355 64.4807 470.924 67.49C469.543 70.45 467.569 72.7687 465.004 74.446C462.439 76.074 459.355 76.888 455.754 76.888ZM455.754 71.782C459.059 71.782 461.723 70.7953 463.746 68.822C465.769 66.7993 466.78 63.7407 466.78 59.646V54.17C466.78 50.0753 465.769 47.0413 463.746 45.068C461.723 43.0453 459.059 42.034 455.754 42.034C452.449 42.034 449.785 43.0453 447.762 45.068C445.739 47.0413 444.728 50.0753 444.728 54.17V59.646C444.728 63.7407 445.739 66.7993 447.762 68.822C449.785 70.7953 452.449 71.782 455.754 71.782ZM501.457 76.888C497.807 76.888 494.674 76.074 492.059 74.446C489.494 72.7687 487.521 70.4253 486.139 67.416C484.807 64.4067 484.141 60.904 484.141 56.908C484.141 52.8627 484.832 49.36 486.213 46.4C487.595 43.3907 489.568 41.072 492.133 39.444C494.699 37.7667 497.782 36.928 501.383 36.928C505.083 36.928 508.093 37.742 510.411 39.37C512.73 40.998 514.432 43.1193 515.517 45.734L510.781 48.25C510.091 46.2767 508.931 44.7473 507.303 43.662C505.725 42.5767 503.751 42.034 501.383 42.034C497.93 42.034 495.241 43.144 493.317 45.364C491.443 47.5347 490.505 50.2973 490.505 53.652V60.164C490.505 63.5187 491.443 66.306 493.317 68.526C495.192 70.6967 497.93 71.782 501.531 71.782C504.097 71.782 506.218 71.19 507.895 70.006C509.622 68.822 510.954 67.194 511.891 65.122L516.109 68.008C515.024 70.5733 513.248 72.6947 510.781 74.372C508.364 76.0493 505.256 76.888 501.457 76.888ZM544.94 76.888C540.944 76.888 537.491 76.222 534.58 74.89C531.719 73.5087 529.277 71.6833 527.254 69.414L531.25 65.936C533.076 67.86 535.074 69.34 537.244 70.376C539.464 71.412 542.079 71.93 545.088 71.93C548.048 71.93 550.466 71.412 552.34 70.376C554.264 69.2907 555.226 67.6133 555.226 65.344C555.226 63.3213 554.536 61.9647 553.154 61.274C551.773 60.534 550.219 60.0407 548.492 59.794L542.498 58.906C541.166 58.7087 539.736 58.4373 538.206 58.092C536.677 57.6973 535.246 57.1547 533.914 56.464C532.582 55.724 531.497 54.7127 530.658 53.43C529.82 52.098 529.4 50.396 529.4 48.324C529.4 45.7587 530.066 43.6373 531.398 41.96C532.73 40.2827 534.556 39.0247 536.874 38.186C539.193 37.3473 541.832 36.928 544.792 36.928C548.246 36.928 551.23 37.4707 553.746 38.556C556.312 39.6413 558.507 41.146 560.332 43.07L556.484 46.696C555.596 45.6107 554.215 44.55 552.34 43.514C550.515 42.4287 547.925 41.886 544.57 41.886C541.561 41.886 539.242 42.404 537.614 43.44C536.036 44.476 535.246 45.9807 535.246 47.954C535.246 49.286 535.567 50.322 536.208 51.062C536.85 51.802 537.688 52.3447 538.724 52.69C539.76 53.0353 540.846 53.3067 541.98 53.504L547.974 54.392C549.356 54.5893 550.786 54.8853 552.266 55.28C553.796 55.6253 555.226 56.168 556.558 56.908C557.89 57.5987 558.976 58.61 559.814 59.942C560.653 61.2247 561.072 62.902 561.072 64.974C561.072 68.7233 559.592 71.6587 556.632 73.78C553.722 75.852 549.824 76.888 544.94 76.888Z" fill="white"/>
</svg>
